<svg width="1800" heigth="800" xmlns="http://www.w3.org/2000/svg">
	<circle cx="87" cy="120" r="54" fill="blue" />
						<text x="80" y="30" font-family="Helvetica" font-size="10">Canada(54)</text>
<circle cx="174" cy="120" r="6" fill="blue" />
						<text x="160" y="30" font-family="Helvetica" font-size="10">Norway(6)</text>
<circle cx="261" cy="120" r="21" fill="blue" />
						<text x="240" y="30" font-family="Helvetica" font-size="10">USA(21)</text>
<circle cx="348" cy="120" r="4" fill="blue" />
						<text x="320" y="30" font-family="Helvetica" font-size="10">Austria(4)</text>
<circle cx="435" cy="120" r="7" fill="blue" />
						<text x="400" y="30" font-family="Helvetica" font-size="10">Germany(7)</text>
<circle cx="522" cy="120" r="6" fill="blue" />
						<text x="480" y="30" font-family="Helvetica" font-size="10">Netherlands(6)</text>
<circle cx="609" cy="120" r="5" fill="blue" />
						<text x="560" y="30" font-family="Helvetica" font-size="10">Australia(5)</text>
<circle cx="696" cy="120" r="3" fill="blue" />
						<text x="640" y="30" font-family="Helvetica" font-size="10">Liechtenstein(3)</text>
<circle cx="783" cy="120" r="1" fill="blue" />
						<text x="720" y="30" font-family="Helvetica" font-size="10">Korea(1)</text>
<circle cx="870" cy="120" r="1" fill="blue" />
						<text x="800" y="30" font-family="Helvetica" font-size="10">Czech Rep(1)</text>
<circle cx="957" cy="120" r="1" fill="blue" />
						<text x="880" y="30" font-family="Helvetica" font-size="10">Spain(1)</text>
<circle cx="1044" cy="120" r="2" fill="blue" />
						<text x="960" y="30" font-family="Helvetica" font-size="10">Sweden(2)</text>
<circle cx="1131" cy="120" r="7" fill="blue" />
						<text x="1040" y="30" font-family="Helvetica" font-size="10">Switzerland(7)</text>
<circle cx="1218" cy="120" r="1" fill="blue" />
						<text x="1120" y="30" font-family="Helvetica" font-size="10">Italy(1)</text>
<circle cx="1305" cy="120" r="5" fill="blue" />
						<text x="1200" y="30" font-family="Helvetica" font-size="10">New Zealand(5)</text>
<circle cx="1392" cy="120" r="15" fill="blue" />
						<text x="1280" y="30" font-family="Helvetica" font-size="10">Luxembourg(15)</text>
<circle cx="1479" cy="120" r="4" fill="blue" />
						<text x="1360" y="30" font-family="Helvetica" font-size="10">Iceland(4)</text>
<circle cx="1566" cy="120" r="2" fill="blue" />
						<text x="1440" y="30" font-family="Helvetica" font-size="10">Malta(2)</text>
<circle cx="1653" cy="120" r="1" fill="blue" />
						<text x="1520" y="30" font-family="Helvetica" font-size="10">Belgium(1)</text>
<circle cx="1740" cy="120" r="1" fill="blue" />
						<text x="1600" y="30" font-family="Helvetica" font-size="10">Finland(1)</text>
						<text x="700" y="220" font-family="Helvetica" font-size="20">Demandes d'asiles par pays</text>
</svg>